<svg width="200" height="200" viewBox="0 0 200 200" fill="none" xmlns="http://www.w3.org/2000/svg">
<g clip-path="url(#clip0)">
<path d="M-27.6681 40.9672C9.3603 39.462 45.962 32.5972 82.3763 26.1433C94.641 23.9695 108.591 20 121.239 20C123.978 20 117.832 24.4465 115.496 25.8762C87.4094 43.066 58.3924 57.352 27.6212 69.146C11.1747 75.4497 -5.50683 81.1315 -21.9255 87.509C-24.5516 88.5291 -31.9031 89.6511 -29.5378 91.1816C-27.2817 92.6414 -12.4681 91.2534 -12.31 91.2484C5.73718 90.6724 23.5994 89.0757 41.5103 86.7745C76.1826 82.3197 110.762 76.2939 145.812 75.8235C147.758 75.7973 151.429 75.2055 148.016 77.2257C139.537 82.2436 130.434 86.2978 121.373 90.1132C110.479 94.7002 99.1948 98.4157 88.5863 103.668C86.2317 104.834 76.7683 108.528 82.9105 111.481C90.6571 115.205 100.205 116.476 108.552 117.624C126.412 120.081 144.434 120.912 162.439 121.297C177.458 121.618 192.498 121.236 207.512 121.764C209.452 121.833 211.393 121.94 213.321 122.165C215.798 122.454 216.368 122.521 214.122 123.968C189.818 139.63 157.727 145.748 129.853 151.012C126.947 151.56 107.435 152.708 104.145 156.621C103.729 157.115 104.874 157.801 105.48 158.023C109.333 159.43 119.563 159.883 122.107 160.093C155.19 162.821 188.488 167.13 220.733 175.251C230.461 177.701 234.006 179.021 224.673 184.799C220.605 187.318 195.786 194.773 207.912 199.623" stroke="white" stroke-opacity="0.25" stroke-width="20" stroke-linecap="round"/>
<circle cx="99.7261" cy="136.155" r="21.4231" transform="rotate(-135 99.7261 136.155)" fill="white"/>
<circle cx="63.2968" cy="99.7261" r="21.4231" transform="rotate(-135 63.2968 99.7261)" fill="white"/>
<circle cx="99.7261" cy="63.2969" r="21.4231" transform="rotate(-135 99.7261 63.2969)" fill="white"/>
<circle cx="136.155" cy="99.7261" r="21.4231" transform="rotate(-135 136.155 99.7261)" fill="white"/>
</g>
<defs>
<clipPath id="clip0">
<rect width="200" height="200" fill="white"/>
</clipPath>
</defs>
</svg>
